<?xml version="1.0" standalone="no"?>
<!DOCTYPE svg PUBLIC "-//W3C//DTD SVG 1.1//EN" "http://www.w3.org/Graphics/SVG/1.1/DTD/svg11.dtd">
<svg xmlns="http://www.w3.org/2000/svg">
<metadata>Generated by Fontastic.me</metadata>
<defs>
<font id="gym-fonts" horiz-adv-x="512">
<font-face font-family="gym-fonts" units-per-em="512" ascent="480" descent="-32"/>
<missing-glyph horiz-adv-x="512" />

<glyph unicode="&#97;" d="M213 235l16 0c11 0 20 9 20 20 0 11-9 20-20 20l-16 0c-12 0-21-9-21-20 0-11 9-20 21-20z m64 0l16 0c11 0 20 9 20 20 0 11-9 20-20 20l-16 0c-11 0-20-9-20-20 0-11 9-20 20-20z m-56-40l14 3c9 0 17 8 17 17 0 9-8 14-17 14l-14 0c-9 0-17-8-17-17 0-9 8-17 17-17z m54 3l14-3c9 0 16 8 16 17 0 9-7 17-16 17l-14 0c-9 0-17-5-17-14 0-9 8-17 17-17z m-39-9l-13 0c-10 0-17-4-17-14 0-9-3-13 7-27 10-15 29-18 29-18 10 0 11 33 11 42 0 10-7 17-17 17z m54 0l-14 0c-9 0-16-7-16-17 0-9 1-42 10-42 0 0 19 3 30 18 10 14 7 18 7 27 0 10-8 14-17 14z m131 149c-32 56-77 64-80 64l-30 0 3 15c1 0 1 1 1 2-1 5-6 9-11 9-4 0-26 0-48 0-22 0-44 0-48 0-5 0-10-4-11-9 0-1 0-2 1-2l3-15-30 0c-3 0-48-8-80-64-17-33-9-29-9-109 0-5 4-9 9-9l62 0c1 0 3 0 4 1l-2-69c0-2 0-3 1-5l16-32c1-2 3-4 5-5 25-10 50-16 74-17l0 0c1 0 2 0 3 0 1 0 1 0 2 0 1 0 1 0 2 0 1 0 2 0 3 0l0 0c24 1 49 7 74 17 2 1 4 3 5 5l16 32c1 2 1 3 1 5l-2 69c1-1 3-1 4-1l62 0c5 0 9 4 9 9 0 80 8 76-9 109z m-10-100l-39 0c-10 71 21 56 7 82l0 0c-2 4-8 12-14 12-2 0-5 0-8-5l-21-96c-1-1-1-2-1-3l3-74-13-28c-24-9-47-14-69-14-22 0-45 5-69 14l-13 28 3 74c0 1 0 2-1 3l-21 96c-3 5-6 5-8 5-7 0-12-8-14-12l0 0c-14-26 17-11 7-82l-39 0c0 63-12 53 3 83l2 5 0 0c25 52 71 57 73 57l39-15c3 0 6 1 7 4 2 2 3 5 2 8 0 1-7 23-8 29 8 0 20 0 32 0l0 0c2 0 3 0 5 0 2 0 3 0 5 0l0 0c12 0 24 0 32 0-1-6-8-28-8-29-1-3 0-6 2-8 1-3 4-4 7-4l39 15c2 0 48-5 73-57l0 0 2-5c15-30 3-20 3-83z"/>
<glyph unicode="&#98;" d="M97 359c0 25-21 46-47 46-26 0-47-21-47-46 0-26 21-47 47-47 26 0 47 21 47 47z m404-199l-98 89c-8 8-21 9-30 3l-99-62c-4-3-10-3-14 0l-144 109c-17 13-42 10-55-7-5-7-8-15-8-24 0 0 1 0 1 0l0-142c0-10 8-19 19-19l108 0c10 0 17 8 17 17 0 9-7 17-17 17l-88 0c-3 0-6 2-6 6l0 77 131-99c5-4 25-13 46-1 27 15 97 61 115 72 2 2 6 2 8 0l80-73c10-10 26-9 35 1 10 10 9 26-1 36z"/>
<glyph unicode="&#99;" d="M221 311c0 20 16 36 36 36 20 0 37-16 37-36 0-21-17-37-37-37-20 0-36 16-36 37z m143 53c-6 2-14-1-16-8l-25-65-48-34c0 0 0 0-1 0l-32 0c0 0-1 0-1 0l-48 34-25 65c-2 7-9 10-16 8-7-3-10-10-7-17l26-69c1-2 2-4 4-5l57-40 0-110c0-3 1-12-3-21l-41-78c-3-7 0-14 6-18 2 0 4-1 6-1 4 0 9 3 11 7l45 86c1 0 1 0 2 0 1 0 2 0 2 0l45-86c2-4 7-7 12-7 2 0 4 1 5 1 7 4 9 11 6 18l-41 78c-4 9-3 18-3 21l0 110 57 40c2 1 3 3 4 5l27 69c2 7-1 14-8 17z m5 71l0 70c0 4-2 6-6 6-4 0-7-2-7-6l0-70c-14-3-25-16-25-31 0-18 14-32 32-32 18 0 32 14 32 32 0 15-11 28-26 31z m-6-50c-10 0-19 8-19 19 0 10 9 18 19 18 10 0 19-8 19-18 0-11-9-19-19-19z m-209 50l0 70c0 4-3 6-6 6-4 0-7-2-7-6l0-70c-14-3-25-16-25-31 0-18 14-32 32-32 17 0 32 14 32 32 0 15-11 28-26 31z m-6-50c-11 0-19 8-19 19 0 10 8 18 19 18 10 0 19-8 19-18 0-11-9-19-19-19z"/>
<glyph unicode="&#100;" d="M34 323c0-10 0-19 0-29l-9 0c-9 0-16-7-16-16 0-9 7-17 16-17l10 0c0-10 0-20 0-31 0-21 33-21 33 0 0 31-1 62-1 93 0 21-33 21-33 0z m362 34c0-21 1-42 2-62-96 2-192-11-288-6 0 21-1 42-2 64-1 21-34 21-33 0 3-56 4-112 4-168 0-22 33-22 33 0 0 23-1 47-1 71 96-5 192 8 288 6 1-24 3-47 5-71 2-21 35-21 33 0-5 55-7 111-8 166-1 21-34 21-33 0z m85-61c4 1 0 0-1 0-1 0-2 0-4 0 0 0-1 0-2 0-1 11-2 23-1 34 0 21-33 21-33 0-1-36 5-71 6-107 1-21 34-21 33 0-1 13-2 27-3 40 5 1 9 1 14 2 9 1 13 12 11 20-2 9-11 13-20 11z"/>
<glyph unicode="&#101;" d="M203 384c23 0 43 20 43 43 0 24-20 43-43 43-24 0-43-19-43-43 0-23 19-43 43-43z m14-56c14-25 28-50 41-76-19-10-43-28-54-38-12-9-34-58-46-82-12-25 27-44 40-18 10 20 26 62 36 70 10 8 42 31 67 39 1 1 2 1 3 2 31-39 90-57 140-27 27 15 3 54-24 38-37-22-75 6-93 41-17 34-29 59-44 83 28 9 53 1 73-27 16-23 54-1 38 22-39 54-96 67-153 33-3-1-13-7-16-9-35-21-68-17-93 18-16 22-54 1-38-22 32-44 76-61 123-47z m260-247l-389 0-31 175 78 0c10 0 19 9 19 20 0 10-9 19-19 19l-100 0c-11 0-20-9-20-19l0-3c0-1 0-2 1-4l37-211c1-9 9-16 19-16l405 0c11 0 20 8 20 19 0 11-9 20-20 20z"/>
<glyph unicode="&#102;" d="M344 299c0 12 10 21 21 21 12 0 22-9 22-21 0-12-10-21-22-21-11 0-21 9-21 21z m-129-65l-65 0c-5 0-10-4-10-10 0-5 5-9 10-9l74 0c6 0 10 4 10 9l0 80 77 0 0-83c0-5 5-9 10-9 5 0 10 4 10 9l0 92c0 6-5 10-10 10l-233 0c-5 0-9-4-9-10 0-5 4-9 9-9l127 0z m209-26l-325 0c-5 0-9-4-9-9 0-6 4-10 9-10l325 0c5 0 10 4 10 10 0 5-5 9-10 9z"/>
<glyph unicode="&#103;" d="M298 468c0 23-19 42-43 42-24 0-43-19-43-42 0-24 19-43 43-43 24 0 43 19 43 43z m-205-64c0 8 6 15 15 15l292 0c9 0 16-7 16-15l0-78c0-8-7-15-15-15-9 0-16 7-16 15l0 58c0 2-1 4-4 4l-75 0 0-363c0-13-10-23-23-23-13 0-23 10-23 23l0 173-10 0 0-173c0-13-11-23-23-23-13 0-23 10-23 23l0 363-76 0c-2 0-4-2-4-4l0-57c0-9-6-16-15-16-10 0-16 7-16 16z"/>
<glyph unicode="&#104;" d="M299 466c0 24-19 43-43 43-24 0-43-19-43-43 0-23 19-42 43-42 24 0 43 19 43 42z m178-48l-442 0c-9 0-15-7-15-15 0-9 6-16 15-16l170 0 0-155-63-57c-9-8-14-19-14-30l0-120c0-12 11-23 23-23 13 0 23 11 23 23l0 109c0 6 2 11 6 14l57 51 39 0 56-51c4-3 6-8 6-14l0-109c0-12 10-23 23-23 13 0 23 11 23 23l0 120c0 11-5 22-13 30l-63 57 0 155 92 0 77 0c8 0 15 7 15 16 0 8-7 15-15 15z"/>
<glyph unicode="&#105;" d="M245 251l15-15-62-20-6 19z m77 5l-5 18-34-10 15-16z m50-19l-23 72-26-9 23-71z m36 12l-23 71-26-8 23-72z m-304-13l23-71 26 8-23 71z m36 11l23-71 26 8-23 72z m86 37l92-92 14 13-93 93z m131-73l-52-53 19-19 53 53z m-26-79l20-20 53 53-20 20z m-112 225l-19 19-53-53 20-19z m-26-80l53 53-19 20-53-53z"/>
<glyph unicode="&#106;" d="M274 419c0 21-17 38-39 38-21 0-38-17-38-38 0-21 17-38 38-38 22 0 39 17 39 38z m-93-48c4 3 9 4 14 4l83 0c28 27 20 93 13 118-2 7 3 15 10 17 7 2 15-3 17-10 1-5 30-118-34-155-1 0-3-1-3-1l1-322c0-11-10-20-21-20-11 0-21 9-21 20l0 156-10 0 0-156c0-11-9-20-20-20-12 0-21 9-21 20l0 318c-24-29-16-90-9-114 1-8-3-15-10-17-2 0-3 0-4 0-6 0-12 4-13 10-1 4-27 111 28 152z"/>
<glyph unicode="&#107;" d="M313 467c0 23-19 42-43 42-24 0-43-19-43-42 0-23 19-42 43-42 24 0 43 19 43 42z m101 28c-8 0-15-7-15-15l0-59c0-1-1-2-3-2l-270-1c-9 0-15-6-15-15l0-77c0-8 6-15 15-15 8 0 15 7 15 15l0 59c0 2 1 3 3 3l75 0 0-362c0-13 10-23 23-23 12 0 22 10 22 23l0 173 12 0 0-173c0-13 10-23 22-23 13 0 23 10 23 23l0 362 94 0c8 0 15 7 15 15l0 77c0 8-7 15-16 15z"/>
<glyph unicode="&#108;" d="M285 406c28-1 52 21 53 50 0 28-22 51-50 52-29 1-53-21-53-49-1-28 21-52 50-53z m57-36c1 5-1 10-5 14-3 4-8 6-14 6l-210 0c-11 0-20-9-20-20 0-11 9-20 20-20l118 0-15-146-96 0c-10 0-19-4-26-11-7-7-11-17-11-26l1-136c0-15 12-28 27-28 0 0 0 0 0 0 15 0 28 13 28 28l0 112c0 2 0 3 1 4 1 1 2 2 4 2l151 0c15 0 26 11 27 27 1 1 15 140 20 194z"/>
<glyph unicode="&#109;" d="M31 404c1 24 21 42 45 42 23-1 42-20 42-44-1-23-21-42-44-41-24 0-43 20-43 43z m440-246c-1 0-247 0-247 0l-163 135 0 39c0 14-11 25-24 25-14 0-25-12-25-25l0-302c0-13 11-24 25-24 13 0 24 11 24 24l0 198 138-114c5-4 10-6 16-6l230 0 0-78c0-13 12-24 25-24 14 0 25 11 25 24l0 103c0 13-11 25-24 25z m-320 261c-3 8-5 16-5 24 0 34 28 62 62 62 35 0 62-28 62-62 0-34-27-62-62-62-7 0-14 1-21 4l-41-47 122-97c1 0 2-1 2-1l98 59c9 5 21 4 28-3l88-84c9-9 10-23 1-33-9-9-23-9-33 0l-75 71c0 0-82-51-111-66-19-11-37-2-42 1 0 0-136 120-136 120-12 11-11 25-7 33 1 2 3 5 5 7z m38 24c0-11 9-19 19-19 11 0 20 8 20 19 0 11-9 20-20 20-10 0-19-9-19-20z"/>
<glyph unicode="&#110;" d="M367 204l-21 0 0 22c0 2-2 5-5 5l-34 0c34 27 42 77 18 114-13 19-33 32-55 36l1 6c3 1 5 4 5 7 1 4-1 7-4 9-2 2-6 4-9 4-5 0-9-1-12-3-3-2-4-4-4-7 0-3 1-6 4-8l-1-6c-10 0-21-3-30-7l-5 8c2 5 2 10 0 14-5 7-16 8-26 1-10-6-14-17-10-24 3-4 8-6 13-6l5-7c-31-28-39-75-15-111 4-7 10-13 16-18l-25 0c0 0 0 0 0 0-2 0-3-1-4-2-1-1-2-2-2-3l0-22-21 1c0 0 0 0 0 0-3 0-6-3-6-6l0-62c0-1 0-2 1-3 1-1 2-2 4-2l21 0 0-22c0-2 2-5 5-5l41 0c0 0 0 0 0 0 2 0 3 0 4 1 1 1 1 2 1 4l1 37 76-1-1-37c0-3 2-5 5-5l41-1c0 0 1 0 1 0 1 0 2 1 3 1 1 1 2 3 2 4l0 22 21-1c0 0 1 0 1 0 1 0 2 1 3 2 1 1 2 2 2 3l0 63c0 2-2 5-5 5z m-105 193c2 0 3-1 4-2-1 0-1 0-1 0-2 0-3-1-4-3 0 2-1 3-3 4 0 0 0 0 0 0 0 1 2 1 4 1z m-63-19c-1 1-3 2-5 2-3-1-6 0-6 1-1 1 1 6 6 9 6 4 11 4 12 2 1 0 0-3-2-5-1-2-1-4 0-6l7-10c-2 0-3-1-5-2 0 0 0 0-1-1z m-9-122c-22 35-13 82 22 105 12 8 27 12 41 12 26 0 49-13 63-34 23-35 13-81-21-104-13-8-27-13-42-13-25 0-49 13-63 34z m63-44c15 0 29 4 42 11l-1-34-76 1 1 30c10-5 22-8 34-8z m-103-68l1 52 16 0-1-52z m26-27l2 106 30-1-1-105z m42 42l0 20 76-1 0-20z m86-43l1 105 31 0-2-106z m57 26l-16 0 1 52 16 0z m-164 119c-15 24-15 55 2 78 2 2 5 3 7 1 2-2 3-5 1-7-14-20-14-46-1-66 8-14 21-23 37-26 15-3 31 0 44 9 13 8 22 21 25 37 3 15 0 31-8 44-2 2-1 5 1 7 2 1 6 1 7-2 10-15 14-33 10-51-4-18-14-34-30-44-11-7-24-11-37-11-5 0-10 0-14 1-18 4-34 15-44 30z m46 45c-1-1-1-3-2-5-1-3 0-7 2-10 3-4 7-6 12-6 2 0 5 1 7 2 7 4 8 13 4 19-3 5-9 7-14 6l-28 43c-2 2-5 3-7 1-2-2-3-5-2-7z m14-10c-2-1-4-1-5 1-1 0-1 1-1 2 0 1 1 2 2 2 0 1 1 1 2 1 1 0 2-1 3-2 1-1 0-3-1-4z"/>
<glyph unicode="&#111;" d="M278 421c0 35-29 64-65 64-35 0-64-29-64-64 0-35 29-63 64-63 36 0 65 28 65 63z m187-338l0 0-227 0 14 7c-6 1-13 4-15 5-1 1-27 13-53 39l-64-29c-2 36 3 71 15 103-7 19-12 42-11 67 2-57 29-98 54-124 36-35 77-50 79-51 3-1 5-1 8-1 5 0 11 1 16 4 0 0-1 0-1 0l173 78c17 7 25 28 17 45-8 17-28 25-45 17l-185-83c-27 18-64 52-70 107 1 1 2 2 2 2 21 21 20 55-1 76-21 20-55 20-75-1-66-67-97-179-78-285 4-26 27-44 52-44 1 0 2 0 3 0 1 0 1 0 1 0l0 0 391 0c19 0 35 15 35 34 0 19-16 34-35 34z"/>
<glyph unicode="&#112;" d="M307 466c0 24-19 43-42 43-24 0-43-19-43-43 0-23 19-42 43-42 23 0 42 19 42 42z m178-48l-441 0c-9 0-16-7-16-15 0-9 7-15 16-15l169 0 0-157-65-67c-7-7-11-17-11-28l0-110c0-12 10-23 23-23 13 0 23 11 23 23l0 100c0 5 2 10 5 13l58 60 24 0 0-72c0-22 18-41 41-41l99 0c12 0 23 11 23 23 0 13-11 23-23 23l-86 0c-5 0-8 4-8 8l0 248 169 0c8 0 15 6 15 15 0 8-7 15-15 15z"/>
<glyph unicode="&#113;" d="M251 425c24 0 43 19 43 43 0 23-19 42-43 42-24 0-43-19-43-42 0-24 19-43 43-43z m194-18c-6 5-16 5-22-2 0 0-22-24-53-24 0 0 0 0 0 0-21 0-42 11-63 33-3 4-8 5-12 5 0 0-66 0-89 0-4 0-8-2-11-5-20-22-41-33-62-33 0 0 0 0 0 0-31 0-53 24-53 24-6 7-16 7-22 2-6-6-7-16-1-22 1-1 31-34 75-35 0 0 1 0 1 0 23 0 46 9 67 26l0-351c0-13 10-23 23-23 12 0 23 10 23 23l0 174 11 0 0-174c0-13 10-23 23-23 12 0 23 10 23 23l0 351c21-17 43-26 67-26 0 0 0 0 1 0 44 1 74 34 75 35 6 6 5 16-1 22z m-63-2c4-5 12-7 17-3l3 3 36-46-3-3c-5-4-6-11-2-16 4-6 11-6 16-2l25 20c6 4 7 11 3 16-4 5-12 6-17 2l-2-2-36 47 2 1c5 4 5 12 1 17-4 6-12 7-17 3l-25-19c-5-4-6-13-1-18z m-260 0c-4-5-12-7-17-3l-3 3-37-46 3-3c6-4 7-11 3-16-4-6-12-6-17-2l-25 20c-5 4-6 11-2 16 4 5 11 6 16 2l2-2 36 47-1 1c-5 4-6 12-2 17 4 6 12 7 18 3l25-19c5-4 5-13 1-18z"/>
<glyph unicode="&#114;" d="M213 355c36 0 65 28 65 63 0 35-29 64-65 64-35 0-64-29-64-64 0-35 29-63 64-63z m253-276l0 0-48 0-103 88c-10 8-24 11-36 6 0 0-39-18-39-18-28 19-64 53-70 109 1 0 1 1 2 2 21 21 20 55-1 75-21 21-55 21-76 0-66-68-97-180-79-287 5-26 28-44 53-44 1 0 397 0 397 0 19 0 35 16 35 35 0 19-16 34-35 34z m-229 12c-1 0-27 13-54 39l-64-29c-2 35 4 71 15 102-7 20-12 43-11 68 2-57 29-98 55-124 36-36 77-51 79-51 3-1 5-2 8-2 5 0 11 1 16 4 0 0 4 3 4 3l26-22-73 0 14 6c-7 1-13 5-15 6z"/>
<glyph unicode="&#115;" d="M421 248c-1 1-1 1-3 1-2 0-5 0-8 0-2 0-3-1-3-2-13-36-26-72-39-108-7-20-14-39-20-58-30 0-60 0-90 0-49 0-98 0-148 0-11 0-23 0-35 0-1 0-3-1-3-3 0-3 0-7 0-10 0-2 2-4 4-4 30 0 60 0 90 0 50 0 100 0 150 0 14 0 28 0 42 0 2 0 3 1 3 3 12 35 24 71 36 107 8 23 16 47 24 71 1 1 1 2 0 3z m-42-108c-8-23-15-45-23-68-29 0-59 0-88 0-50 0-100 0-150 0-12 0-25 0-38 0 0 1 0 2 0 3 29 0 58 0 88 0 49 0 98 0 147 0 12 0 23 0 35 0 1 0 2 1 3 2 13 36 26 72 39 108 6 19 13 39 20 58 1 0 1 0 2 0-12-34-23-68-35-103z m-134 208c25-1 45 21 46 45 0 18-11 34-27 41-17 7-36 3-49-9-13-13-16-32-10-49 7-16 23-27 40-28z m-15 79c17 9 38 2 48-13 4-7 6-14 6-21 0-19-13-35-32-38-18-3-37 9-42 27-6 18 4 37 20 45z m-20-89c0 0 0 0 0 0 1 0 0 0 0 0z m95-75c-9 4-19 7-28 11-1 0-1 1-2 1-3 4-3 10-3 14 0 14 12 32 2 45-2 2-5 3-8 3-8 2-16 2-24 4-8 1-16 3-24 5-10 1-19-7-22-17-2-6-4-13-6-19-2-7-4-15-4-23 0-6 3-11 7-15 0-2-1-4-1-6-3-11-6-22-9-34-4-13-7-27-10-41-2-8-3-17-7-25-2-4-4-6-8-6-4 0-9 2-13 3-9 2-17 5-26 7-7 2-13 2-18-2-6-4-9-10-7-16 1-7 8-15 14-16 3-2 7-3 10-4 12-4 24-7 36-11 8-3 15-4 24-2 16 3 25 17 29 32 1 5 3 10 5 15 1 3 3 6 3 10 1 2 2 5 3 8 2 4 6 7 10 9 8 2 17-3 24-6 3-2 7-4 10-6 3-2 5-6 6-9 1-5 1-11 1-16-1-8 0-16 0-25 0-8-1-17 0-25 1-8 7-14 15-16 9-2 18 2 20 12 1 6 1 12 1 18 1 22 3 44 5 66 0 14-5 28-17 35-6 4-15 4-22 6-6 2-11 4-16 7 3 0 6 2 8 4 2 2 4 5 4 7 4-2 7-3 10-5 5-2 9-4 13-6 4-3 8-5 12-6 9-2 18 5 19 14 2 11-8 18-16 21z m-49-37c5-2 11-4 16-5 9-3 17-3 24-10 11-12 7-29 6-43-2-21-3-42-5-62 0-1 0-2 0-3-1-7-9-7-14-6-6 1-11 6-11 12l0 31c0 7 2 14 2 21 0 7 0 14-4 20-4 7-12 10-19 13-12 6-26 9-36-3-2-3-4-7-5-11-2-5-3-9-5-14-3-9-5-20-11-28-3-6-9-11-16-13-8-2-15 0-23 2-12 4-24 8-36 11-3 2-6 3-10 4-3 1-6 5-8 8-2 3-2 6 0 9 3 6 10 6 16 5 9-2 18-5 27-7 6-2 16-6 22-1 4 3 6 8 8 12 6 24 11 47 17 71 2 9 5 19 8 28 7-6 15-11 23-17 3-2 8-5 11-7 3-2 5-4 7-6 1-2 2-4 5-6 3-2 7-4 11-5z m58 15c-4-9-11-7-18-3-9 5-19 9-29 14-1 5-4 10-8 13-9 7-19 11-28 16-1 1-1 1-2 1-1 1-1 1-2 2-2 2-4 5-4 9-1 6 5 12 10 16 2 2-1 5-3 5-1 0-1 0-2-1-7-5-12-12-11-21 0-5 3-10 7-14 3-3 8-5 11-7 4-2 8-4 12-6 4-2 7-4 10-7 1-1 2-2 3-4 0 0 1-1 1-2 0-1 0-2 0-4 0-5-6-10-12-8-1 0-2 1-4 2-1 0-2 1-3 2 0 0-1 1-2 1 0 0 0 1-1 1-3 2-5 4-8 6-9 6-17 12-25 18-2 1-4 3-6 4-1 1-1 2-2 3-1 1-2 2-3 3-2 3-3 7-2 12 1 9 4 18 7 27 1 4 4 17 10 19 11 3 32-4 41-5 5-1 10-1 15-2 0 0 0 0 0 0 0 0 0 0 0 0 0 0 0 0 1 0 2-1 4-4 4-7 2-9-3-19-5-28-2-9-2-22 8-27 3-2 7-3 11-5 6-2 12-5 18-7 0 0 0 0 0 0 6-2 15-9 11-16z"/>
<glyph unicode="&#116;" d="M324 419c0 21-17 38-38 38-22 0-39-17-39-38 0-21 17-38 39-38 21 0 38 17 38 38z m44 75c0 3 0 4 0 4-2 8-10 12-17 10-6-2-10-6-10-14l-110 0c0 8-4 13-11 14-7 2-14-3-16-10 0-1-1-1-1-4l-74 0c-20 0-37-16-37-37l0-440c0-7 6-13 13-13 7 0 13 6 13 13l0 444c0 7 6 13 13 13l68 0c-5-36-7-103 39-129 0-1 2-1 2-1l0-319c0-12 9-21 21-21 11 0 21 9 21 21l0 154 7 0 0-154c0-12 10-21 21-21 12 0 21 9 21 21l0 319c0 0 2 0 3 1 46 26 43 93 38 129l55 0c8 0 13-6 13-13l0-442c0-8 8-15 16-15 8 0 15 7 15 15l0 438c0 21-16 37-37 37z m-40-118l-85 0c-23 21-21 69-16 98l118 0c4-29 6-77-17-98z"/>
<glyph unicode="&#117;" d="M298 298l0 55c0 1 0 1-1 2-2 21-20 37-41 37-21 0-39-16-41-37-1-1-1-1-1-2l0-55c-9-3-15-11-15-20l0-138c0-11 9-20 20-20 12 0 21 9 21 20l0 138c0 9-7 17-16 20l0 25c8-9 19-15 32-15 13 0 24 6 32 15l0-25c-9-3-16-11-16-20l0-138c0-11 9-20 21-20 11 0 20 9 20 20l0 138c0 9-6 17-15 20z m-42 21c-17 0-32 14-32 31 0 18 15 32 32 32 17 0 32-14 32-32 0-17-15-31-32-31z"/>
<glyph unicode="&#118;" d="M302 432c0-25-21-45-46-45-25 0-45 20-45 45 0 25 20 45 45 45 25 0 46-20 46-45z m97 32c-7 7-19 7-27 0l-91-91c-7 4-15 7-23 7-9 0-17-3-24-7l-139 0c-11 0-19-9-19-19 0-11 8-20 19-20l116 0c0 0 0-1 0-1l0-110c0-2 0-4 1-6-1-2-1-3-1-5l0-170c0-10 9-19 19-19 11 0 20 9 20 19l0 136c2-1 5-1 8-1 3 0 5 0 8 1l0-136c0-10 9-19 19-19 11 0 19 9 19 19l0 170c0 2 0 3 0 5 0 2 0 4 0 6l0 110c0 3 0 5 0 8l95 96c8 7 8 19 0 27z"/>
<glyph unicode="&#119;" d="M138 243c0-21-17-38-39-38-21 0-38 17-38 38 0 22 17 39 38 39 22 0 39-17 39-39z m322-61c-4 6-10 9-17 9l-102 0c0 5 0 10 0 14l89 0c7 0 12 5 12 12 0 7-5 12-12 12l-59 0c0 3-1 5-4 7-11 7-21 8-29 3-4-3-6-6-8-10l-24 0 0 22c0 5-4 8-8 8l-36 4c-19 3-50 3-68 0-2 0-5 0-7 0l9 56c0 1 0 2 0 3 0 1 1 1 2 1 20 5 32 26 27 47-6 20-27 32-47 27-20-6-33-27-27-47 2-9 8-16 15-21-1-2-2-3-2-5l-11-71c0-1 0-3 0-4l0-36c0-4 4-7 8-7l30 3c21 2 57-2 78-4 18-2 31 0 35 0l21 0c-1-5 0-9 0-14l-235 0c-8 0-14-3-18-10l-32-57c-6-10-3-22 7-27 3-2 7-3 10-3 7 0 14 4 17 10l27 47 331 0 32-48c6-9 19-12 28-6 9 6 12 19 6 28z"/>
<glyph unicode="&#120;" d="M454 109c-2-4 2-15 3-19 0-1 0-1 0-1 0-2 1-13-3-22-1-2-1-7-5-11-2-2-4-3-7-3-2-2-6-3-11-3-1-1-3-1-5-1-2 0-3 0-4 0-2 0-6 0-11 1-2 0-5 0-7 2-2 2-4 5-3 10-1 0-2 1-2 1-3 4-4 9-2 16 0 1 0 1 0 2 1 1 9 15 20 22 1 7 1 18 1 21-3 12-6 29-1 43-6 2-18 7-23 12-5 4-9 8-12 12-3-11-13-26-37-45 1-10 3-50-6-74-1-2-4-3-6-2-3 1-4 3-3 6 10 24 5 71 5 72 0 1 1 3 2 4 40 31 37 46 36 51 0 0 0 0 0 1-8-15-24-25-44-25-26 0-47 18-47 41l0 19c0 2 2 4 5 4 2 0 4-2 4-4l0-19c0-18 17-32 38-32 21 0 38 14 38 32 0 2 2 4 5 4 2 0 4-2 4-4 0-4-1-8-2-12 0 0 1 0 1 0 2 1 5 1 6-1 5-9 10-13 19-21 5-5 20-10 25-12 2-1 3-2 3-3 1-1 0-3 0-4-7-11-4-29-1-41 1-6-1-23-1-26-1-2-2-3-3-4-8-4-16-16-18-19-1-6 1-8 1-8 1 0 2 0 3-1 1-1 1-3 1-4-1-4 0-5 0-5 1 0 2 1 3 0 5-1 7-1 7-1 1 1 2 1 3 0 3-1 5 0 5 0 1 1 2 1 3 1 4 0 5 1 5 1 1 2 2 2 4 2 2 0 2 1 3 1 1 1 1 5 1 6 0 1 1 1 1 2 3 5 3 13 3 17-3 9-6 19-2 25 6 12 15 50 15 50 4 26-8 43-16 55-12 17-34 27-34 27-1 1-2 2-3 3-5 28-30 35-42 35-28-1-61 16-62 17-1 0-2 2-2 4 0 20 3 31 3 31 1 1 1 1 1 1 7 11 6 16 6 17 0 1-1 1-1 1-2 1-3 3-3 5 5 34-19 40-20 40 0 0-6 1-11 1 0 0-1 0-1 0-4 0-9-1-11-1-1 0-25-6-20-40 1-2-1-4-3-5 0 0 0 0 0-1-1-1-1-6 6-17 0 0 0 0 0-1 0 0 4-11 4-31 0-3-2-4-4-5 0 0-47-9-69-23-2-2-5-1-6 1 0 0-1 1-1 2-6 9-22 24-27 29-5 4-20 10-26 12-1 0-2 1-2 2-1 2-1 3 0 4 7 12 4 29 1 41-1 7 1 23 1 27 0 1 1 2 2 3 8 4 15 15 18 19 1 7 0 8 0 8-2 0-3 1-3 2-1 1-1 2-1 3 0 4 0 5 0 5-1 0-3 0-4 0-4 2-7 1-7 1 0 0-1 0-2 0-4 1-5 0-5 0-1-1-3-1-4-1-3 1-4-1-4-1-1-1-3-2-4-2-2 0-2 0-3-1-1-1-2-4-2-5 0-1 0-2 0-3-3-4-3-13-3-16 3-9 5-19 2-25-6-13-15-50-15-51-4-24 7-41 16-53l1-1c11-17 33-28 33-28 1 0 2-2 2-3 6-28 30-34 43-34-1 3-2 6-2 9 0 2 2 4 5 4 2 0 4-2 4-4 0-18 17-32 38-32 21 0 38 14 38 32l0 19c0 2 2 4 5 4 2 0 4-2 4-4l0-19c0-23-21-41-47-41-19 0-35 10-42 24-1-1-1-1-2-1-1-5-1-21 36-50 2-1 2-3 2-4 0-1-4-48 5-72 1-3 0-5-2-6-1-1-1-1-2-1-2 0-3 1-4 3-9 24-7 64-6 74-35 28-40 46-38 56-15 2-37 12-43 39-6 3-24 14-35 29l-1 2c-9 13-22 31-17 60 0 2 9 40 16 53 2 3-2 15-3 19 0 0-1 0-1 1 0 1 0 5 1 10l-11 0 0-34c0-3-2-5-4-5-3 0-5 2-5 5l0 78c0 2 2 4 5 4 2 0 4-2 4-4l0-35 13 0c1 1 1 1 1 2 0 2 1 8 5 11 2 2 4 3 7 3 2 2 5 4 10 3 2 1 6 2 10 1 2 0 6 1 10-1 2 1 5 0 7-2 3-2 4-5 4-9 1-1 1-1 2-2 1-1 2-3 2-6l7 0 0 35c0 2 2 4 5 4 3 0 5-2 5-4l0-78c0-3-2-5-5-5-3 0-5 2-5 5l0 34-7 0c0 0 0-1 0-1 0-1 0-1 0-2-1 0-9-15-20-22-1-7-2-17-1-20 3-13 6-30 0-43 7-3 18-8 24-12 6-6 20-19 27-29 21 12 53 19 65 21-1 14-3 23-4 25-6 11-8 19-6 25 1 1 2 3 3 4-4 39 27 47 27 47 1 0 8 1 14 1 5 0 13-1 13-1 1 0 32-8 28-47 1-1 2-3 2-4 3-6 1-14-6-25-1-2-3-11-3-26 8-3 34-15 55-14 14 0 43-8 51-40 6-3 24-13 35-29 9-13 22-32 18-62 0-2-9-39-16-52z m-116 94c0 4-2 7-6 7-4 0-6-3-6-7 0-4 2-7 6-7 4 0 6 3 6 7z m-123 0c0-4 3-7 7-7 3 0 6 3 6 7 0 4-3 7-6 7-4 0-7-3-7-7z m62-29c-25 0-45-20-45-45l0-52c0-2 2-5 4-5 3 0 5 3 5 5l0 52c0 20 16 36 36 36 20 0 36-16 36-36l0-54c0-2 2-4 4-4 3 0 5 2 5 4l0 54c0 25-20 45-45 45z m13-62c0 0 0 0 0 0 9 0 16 6 16 7 2 1 2 4 0 6-2 2-5 2-6 0-1 0-5-4-10-4-3 0-6 1-9 4l0 7c3-1 6-2 9-2 0 0 0 0 0 0 9 0 16 7 16 7 2 2 2 5 0 7-2 1-5 1-6 0-1-1-5-5-10-5 0 0 0 0 0 0-3 0-6 2-9 4l0 8c0 3-2 5-4 5-3 0-5-2-5-5l0-8c-3-2-6-4-8-4-6 0-10 4-10 5-2 1-5 1-7 0-1-2-1-5 0-7 1 0 7-7 16-7 0 0 0 0 0 0 3 0 6 1 9 2l0-7c-3-3-6-4-8-4-1 0-1 0-1 0-5 0-9 4-9 4-2 2-5 2-7 0-1-2-1-5 0-6 1-1 7-7 16-7 0 0 0 0 0 0 3 0 6 0 9 2l0-10c-3-2-6-4-9-4 0 0 0 0 0 0-5 0-9 4-9 4-2 2-5 2-7 0-1-2-1-4 0-6 1-1 7-7 16-7 0 0 0 0 0 0 3 0 6 1 9 2l0-2c0-2 2-4 5-4 2 0 4 2 4 4l0 2c3-1 6-2 9-2 0 0 0 0 0 0 9 0 16 6 16 7 2 2 2 4 0 6-2 2-5 2-6 0-1 0-5-4-10-4 0 0 0 0 0 0-3 0-6 2-9 4l0 10c3-1 6-2 9-2z m-13-34c-3 0-6-2-6-6 0-3 3-5 6-5 3 0 5 2 5 5 0 4-2 6-5 6z m148 116c0-2 2-4 4-4 1 0 1 0 1 0 2 0 4 3 4 5-3 44-42 48-42 48-3 0-5-1-5-4 0-2 1-5 4-5 1 0 31-4 34-40z m-366 262c-2 0-4-2-4-5l0-63c0-2 2-4 4-4 3 0 5 2 5 4l0 63c0 3-2 5-5 5z m114-72c3 0 5 2 5 4l0 63c0 3-2 5-5 5-2 0-4-2-4-5l0-63c0-2 2-4 4-4z m-127 53c-3 0-5-2-5-4l0-26c0-3 2-5 5-5 2 0 4 2 4 5l0 26c0 2-2 4-4 4z m141-35c2 0 5 2 5 5l0 26c0 2-3 4-5 4-3 0-5-2-5-4l0-26c0-3 2-5 5-5z m-67-104c0 3-3 4-5 4-3 0-5-2-4-5 0 0 4-39 47-42 1 0 1-1 1-1 2 0 4 2 4 5 1 2-1 4-4 5-36 3-39 33-39 34z"/>
<glyph unicode="&#121;" d="M256 411c0 20-17 37-38 37-20 0-37-17-37-37 0-21 17-38 37-38 21 0 38 17 38 38z m73 95c-7 0-12-6-12-12l0-2-18 0c-3 5-9 10-16 8-5-1-8-6-10-8l-14 0 0 2c0 6-7 12-13 12-7 0-13-6-13-12l0-32c0-7 6-12 13-12 6 0 13 5 13 12l0 4 17 0c5-28 7-77-16-99 0 0-61 1-82 1-2 0-5-1-7-2-46-26-43-94-38-129-4-5-7-12-7-19 0-15 12-27 27-27 8 0 16 3 21 9l0-177c0-11 8-20 19-20 11 0 19 9 19 20l0 154 11 0 0-154c0-11 9-20 20-20 11 0 21 9 21 20l-1 314c0 0 2 1 3 1 46 26 43 95 38 128l13 0 0-4c0-7 5-12 12-12 7 0 11 5 11 12l0 32c0 6-4 12-11 12z m-169-262c-4 28-6 68 14 89l0-98c-2 5-8 8-14 9z"/>
<glyph unicode="&#122;" d="M276 268c0-11-9-20-20-20-11 0-20 9-20 20 0 11 9 20 20 20 11 0 20-9 20-20z m-22 74l2-2 2 2c1 1 18 16 18 36 0 20-17 36-18 36l-2 2-2-2c-1 0-18-16-18-36 0-20 17-35 18-36z m2 65c4-5 13-16 13-29 0-13-9-24-13-29-4 5-13 16-13 29 0 13 9 24 13 29z m8-29c0 8-4 16-8 21-4-5-8-13-8-21 0-8 4-16 8-21 4 5 8 13 8 21z m-62-59l3 0 0 3c0 1 1 24-13 38-14 14-37 13-38 13l-3 0 0-3c0-1-1-24 13-38 14-14 37-13 38-13z m-14 36c9-9 10-23 11-30-7 1-21 2-30 11-9 9-11 24-11 30 6 0 21-2 30-11z m5-24c-1 7-3 15-9 21-6 6-15 8-21 9 1-7 4-15 9-21 6-6 15-8 21-9z m117-114l-3 0 0-3c0-1-1-24 13-38 14-14 37-13 38-13l3 0 0 3c0 1 1 24-13 38-14 14-37 13-38 13z m14-36c-9 9-10 23-11 30 7-1 21-2 30-11 9-9 11-24 11-30-6 0-21 1-30 11z m-5 24c1-7 3-15 9-21 6-6 15-8 21-9-1 7-4 15-9 21-6 6-15 8-21 9z m-194 63c5-4 13-8 21-8 8 0 16 4 21 8-5 4-13 8-21 8-8 0-16-4-21-8z m277 2c0 1-16 18-36 18-15 0-27-9-33-15 2 6 3 12 3 18-8-36-80-64-80-64 0 0-74 32-80 64 0-6 1-12 4-18-5 5-18 15-34 15-20 0-36-17-36-18l-2-2 2-2c0-1 16-18 36-18 20 0 35 17 36 18l0 0c13-26 42-50 52-73 16-38 22-97 22-97 0 0 4 58 20 95 9 22 41 45 54 74 2-1 17-17 36-17 20 0 36 17 36 18l2 2z m-256-15c-13 0-24 9-29 13 5 4 16 13 29 13 13 0 24-9 29-13-5-4-16-13-29-13z m110-95c-3 0-5 2-5 5 0 3 2 6 5 6 3 0 5-3 5-6 0-3-2-5-5-5z m0 23c-3 0-5 2-5 5 0 3 2 5 5 5 3 0 5-2 5-5 0-3-2-5-5-5z m0 24c-3 0-5 3-5 6 0 3 2 5 5 5 3 0 5-2 5-5 0-3-2-6-5-6z m110 48c-13 0-24 9-29 13 5 4 16 13 29 13 13 0 24-9 29-13-5-4-16-13-29-13z m-21 13c5-4 13-8 21-8 8 0 16 4 21 8-5 4-13 8-21 8-8 0-16-4-21-8z m-140-51l-3 0c-1 0-24 1-38-13-14-14-13-37-13-38l0-3 3 0c1 0 24-1 38 13 14 14 13 37 13 38z m-17-36c-9-9-24-11-30-11 0 6 2 21 11 30 9 9 23 10 30 11-1-7-2-21-11-30z m-4 3c6 6 8 15 9 21-7-1-15-3-21-9-6-6-8-15-9-21 7 1 15 3 21 9z m123 135l3 0c1 0 24-1 38 13 14 14 13 37 13 38l0 3-3 0c-1 0-24 1-38-13-14-14-13-37-13-38z m17 36c9 9 24 11 30 11 0-6-1-21-11-30-9-9-23-10-30-11 1 7 2 21 11 30z m4-3c-6-6-8-15-9-21 7 1 15 3 21 9 6 6 8 15 9 21-7-1-15-4-21-9z"/>
<glyph unicode="&#65;" d="M449 277l-84-41-15 14-17 37 7 0c0-1 1-1 2-1 3 0 5 1 8 2l44 24c9 4 12 15 8 23-5 9-15 12-24 8l-40-21-19 2c-4 1-7 0-10-2l-56-13c-1 0-2 0-4 0l-14-4-4-1 1 0-2 0-28 29c11 15 17 32 17 51 0 50-41 90-90 90-49 0-89-40-89-90 0-49 40-89 89-89 18 0 34 5 48 14l34-37c4-4 9-6 13-6 2 0 3 1 5 1l22 6 51-82-56-125c-6-12 0-27 13-32 3-1 6-2 9-2 10 0 19 6 23 15l58 128 126 60c11 7 15 22 8 34-7 12-23 15-34 8z m-388 107c0 38 31 68 68 68 38 0 68-30 68-68 0-16-5-31-15-43-3-1-5-2-7-4-3-2-4-4-5-7-11-9-25-14-41-14-37 0-68 31-68 68z m239-26c0-21-17-39-38-39-21 0-38 18-38 39 0 21 17 38 38 38 21 0 38-17 38-38z"/>
<glyph unicode="&#66;" d="M161 431c0-19-15-34-34-34-19 0-34 15-34 34 0 19 15 34 34 34 19 0 34-15 34-34z m291-243l-326 0c1 2 1 3 1 4l0 94 35-11c2 0 4 0 5 0l65 0c10 0 19 8 19 19 0 11-9 20-19 20l-62 0-9 3c0 0 0 0-1 0l-27 17c-3 2-4 6-4 9l3 14 11 7 64 18c7 2 12 10 9 18-2 7-10 11-17 9l-65-19c-2 0-3-1-4-1l-6-5-20 6c0 0-1 0-1 1l-20 22-6 30c-1 8-9 12-17 11-7-2-12-9-10-17l6-33c1-2 2-4 4-6l20-23-5-30c0-3 0-7 2-10l12-29c-1-2-2-4-2-6l0-108c0-1 1-2 1-4l-28 0c-9 0-16-7-16-16l0-23c0-8 7-16 16-16l392 0c9 0 16 8 16 16l0 23c0 9-7 16-16 16z"/>
<glyph unicode="&#67;" d="M149 344l-27-37c-2-3-2-6-1-9l42-85c-17-16-30-34-35-51-1-3-1-5 1-8 1-2 4-3 6-3l225 0c2 0 4 1 6 3 26 27 36 57 26 80-7 19-26 31-52 36l19 48 19 0c4 0 8 3 8 8 0 4-4 8-8 8l-73 0c-4 0-8-4-8-8 0-5 4-8 8-8l37 0-19-46c-3 0-6 0-9 0-27 0-56-6-85-18-20-8-38-19-53-30l-38 77 42 56 27-19c3-2 8-1 11 2 3 4 2 9-2 12l-34 23c-3 3-8 2-11-2l-12-16-28 23c-3 3-9 3-11-1-3-3-3-8 1-11z m86-105c27 11 54 17 79 17 32 0 56-10 64-28 6-17-1-39-21-61l-210 0c14 28 47 55 88 72z m166-101c0-5-4-8-8-8l-274 0c-4 0-8 3-8 8 0 4 4 8 8 8l274 0c4 0 8-4 8-8z m-163 53c0 5 4 8 8 8l14 0 40 27c3 3 9 2 11-2 3-3 2-8-2-11l-21-14c5 0 8-3 8-8 0-4-3-8-8-8l-42 0c-4 0-8 4-8 8z"/>
<glyph unicode="&#68;" d="M48 211l28 0 0-45c0-15 12-27 26-27 5 0 9 1 13 3l0-12c0-15 12-27 27-27 14 0 26 12 26 27l0 81 168 0 0-81c0-15 12-27 27-27 15 0 26 12 26 27l0 12c4-2 8-3 13-3 15 0 26 12 26 27l0 45 36 0c12 0 22 10 22 23 0 12-10 23-22 23l-36 0 0 45c0 15-11 27-26 27-5 0-9-1-13-4l0 13c0 15-11 27-26 27-15 0-27-12-27-27l0-81-168 0 0 81c0 15-12 27-26 27-15 0-27-12-27-27l0-13c-4 3-8 4-13 4-14 0-26-12-26-27l0-45-28 0c-13 0-23-11-23-23 0-13 10-23 23-23z"/>
<glyph unicode="&#69;" d="M352 363c-11 6-24 10-37 10-24 0-45-11-59-28-14 17-35 28-59 28-13 0-26-4-37-10-23-13-39-38-39-67 0-8 1-16 4-23 1-5 2-10 5-15l49 0 12 21c2 3 5 5 9 5 3 0 7-2 9-5l18-27 22 59c1 4 5 7 9 7l0 0c4 0 8-3 10-7l20-53 33 0c6 0 11-4 11-10 0-6-5-10-11-10l-41 0c-4 0-8 2-9 6l-13 34-19-53c-2-3-5-6-9-6 0 0 0 0-1 0-3 0-6 2-8 4l-20 31-7-11c-2-3-6-5-9-5l-43 0c37-50 114-99 114-99 0 0 118 75 131 134 3 7 4 15 4 23 0 29-16 54-39 67z"/>
<glyph unicode="&#70;" d="M118 98c-11 0-20 9-20 20l0 296c0 10 9 19 20 19l40 0c10 0 19-9 19-19l0-296c0-11-9-20-19-20z m-59 40c-11 0-20 9-20 20l0 216c0 11 9 20 20 20l20 0 0-256z m295-40c-10 0-19 9-19 20l0 296c0 10 9 19 19 19l40 0c11 0 20-9 20-19l0-296c0-11-9-20-20-20z m79 40l0 256 20 0c11 0 20-9 20-20l0-216c0-11-9-20-20-20z m59 157l-39 0 0-59 39 0c11 0 20 9 20 20l0 20c0 11-9 19-20 19z m-433 0l-39 0c-11 0-20-8-20-19l0-20c0-11 9-20 20-20l39 0z m99 0l196 0 0-59-196 0z"/>
<glyph unicode="&#71;" d="M459 330l0 11-34 0 0 20-66 0 0-84-206 0 0 84-66 0 0-20-34 0 0-11-24 0 0-148 24 0 0-11 34 0 0-20 66 0 0 84 206 0 0-84 66 0 0 20 34 0 0 11 24 0 0 148z m-377-32l-19 0 0 28 19 0z m53 6l-27 0 0 43 27 0z m268 0l-27 0 0 43 27 0z m44-6l-19 0 0 28 19 0z"/>
<glyph unicode="&#72;" d="M411 340c0 5-4 9-9 10l0 21c0 6-5 10-10 10-6 0-11-4-11-10l0-21-3 0 0 21c0 6-5 10-11 10-5 0-10-4-10-10l0-21-9 0c-3 7-11 12-19 12-8 0-15-5-18-12l-23 0c7 8 12 19 12 31 0 24-20 44-44 44-24 0-44-20-44-44 0-12 5-23 12-31l-23 0c-3 7-10 12-18 12-8 0-15-5-19-12l-9 0 0 21c0 6-5 10-10 10-6 0-11-4-11-10l0-21-3 0 0 21c0 6-5 10-11 10-5 0-10-4-10-10l0-21c-5-1-9-5-9-10 0-5 4-10 9-10l0-21c0-6 5-10 10-10 6 0 11 4 11 10l0 21 3 0 0-21c0-6 5-10 11-10 5 0 10 4 10 10l0 21 9 0c1-9 5-15 10-20 8-7 17-9 27-9 3 0 6 0 8 0l0-193c0-12 10-21 21-21 11 0 20 9 20 21l0 84 12 0 0-84c0-12 9-21 20-21 11 0 21 9 21 21l0 193c3 0 6 0 9 0 9 0 18 2 26 9 5 5 9 11 10 20l9 0 0-21c0-6 5-10 10-10 6 0 11 4 11 10l0 21 4 0 0-21c0-6 4-10 10-10 5 0 10 4 10 10l0 21c5 0 9 5 9 10z"/>
<glyph unicode="&#73;" d="M270 321l60-32c3-2 5-5 5-8l3-44 42 37c4 4 10 3 13-1 4-3 4-10 0-13l-56-51c-2-2-4-3-7-3-1 0-2 0-3 1-4 1-6 4-7 8l-4 59-55 29c-5 3-6 9-4 14 3 4 9 6 13 4z m168-51l-69-89 24 0c6 0 10-5 10-10 0-6-4-10-10-10l-311 0c-5 0-10 4-10 10 0 5 5 10 10 10l14 0c10 48 26 120 27 131l-17 11c-5 3-6 9-3 14 3 4 9 5 14 3l90-58 42 64c3 5 9 6 13 3 5-3 6-9 3-13l-42-65 128-82 71 92c3 5 10 5 14 2 4-3 5-9 2-13z m-110-89l-115 74-11-17c4-5 6-11 6-17 0-16-13-29-29-29-15 0-28 13-28 29 0 16 13 28 28 28 2 0 4 0 6 0l11 16-55 36c-3-16-10-49-25-120z m-149 53c-7 0-13-6-13-13 0-8 6-14 13-14 8 0 14 6 14 14 0 4-3 8-6 11 0 0-1 0-1 0 0 0 0 0 0 1-2 1-4 1-7 1z m225 52c15 0 26 12 26 26 0 14-11 26-26 26-14 0-25-12-25-26 0-14 11-26 25-26z m-232-65c0-5 3-8 7-8 5 0 8 3 8 8 0 4-3 8-8 8-4 0-7-4-7-8z"/>
<glyph unicode="&#74;" d="M461 316l0 18c0 20-17 37-37 37l-29 0c-21 0-38-17-38-37l0-51-197 0 0 51c0 20-17 37-37 37l-30 0c-20 0-37-17-37-37l0-18c-21 0-38-18-38-39l0-66c0-21 18-38 38-38l0-18c0-21 17-38 37-38l30 0c20 0 37 17 37 38l0 50 197 0 0-50c0-21 17-38 38-38l29 0c20 0 37 17 37 38l0 18c21 0 38 17 38 38l0 66c0 21-18 39-38 39z"/>
<glyph unicode="&#75;" d="M180 41c5-5 4-10-1-15l-24-22c-4-5-9-5-14 1l-138 147c-4 5-4 11 2 16l23 22c5 5 10 4 15-1z m174 278c5-5 5-10 0-15l-148-139c-5-4-11-4-16 0l-35 38c-4 6-4 11 0 16l148 139c6 5 11 4 16-1z m-124-231c5-5 5-9-1-14l-23-23c-5-4-11-4-16 0l-136 148c-5 5-5 10 0 15l24 22c5 5 10 5 15 0z m227 225c5-5 5-10 0-15l-24-22c-5-5-10-5-15 0l-136 148c-5 5-5 10 0 15l23 22c6 5 11 5 16 0z m51 48c5-6 5-11-1-16l-23-22c-5-5-10-5-15 1l-137 147c-5 5-5 10 1 15l23 23c5 4 10 4 15-2z"/>
<glyph unicode="&#76;" d="M174 327c0 2 2 3 4 3l3 0c-1 3-2 5-3 7-1 4-1 8-1 12 0 14 7 27 20 33 14 8 33 6 45-6 12 12 31 14 45 6 13-6 20-19 20-33 0-4 0-8-2-12-6-28-59-62-61-63-1 0-1-1-2-1-1 0-1 1-2 1-1 1-26 17-44 36-2 1-2 4 0 5 1 2 4 1 5 0 15-15 35-29 41-33 10 6 51 35 56 57 1 3 2 6 2 10 0 11-6 21-16 27-13 7-30 3-39-8-1-1-2-1-3-1-1 0-2 0-3 1-9 11-26 15-39 8-10-6-16-16-16-27 0-4 1-7 2-10 0-3 2-6 3-9l18 0 6 10c1 1 2 2 3 2 1 0 1 0 1 0 1 0 2 0 3-2l9-13 10 28c1 2 2 3 4 3 2 0 3-1 4-3l9-25 16 0c2 0 4-1 4-3 0-2-2-4-4-4l-19 0c-2 0-3 1-4 2l-6 18-10-26c0-2-1-3-3-3 0 0 0 0 0 0-2 0-3 1-3 2l-10 15-4-6c-1-1-2-2-3-2l-32 0c-2 0-4 2-4 4z m264-127c-3-8-15-23-28-39-10-13-20-26-25-34-1-1-2-2-3-2-1 0-2 0-2 1-2 1-3 3-2 5 6 9 16 22 26 35 1 0 1 1 2 1-12-5-23-7-27-7-19-17-41-22-57-22-16 0-28 4-29 5 0 0 0 0 0 0 0 0-1 0-1 0-7 5-20 7-25 8-2-4-5-6-5-6-11-3-18-3-23 0-2 1-3 3-3 5-3 1-4 3-4 4-1 2-1 3-1 4-3 3-3 7-3 10-2 2-2 5-1 6 1 7 11 12 16 14 2 2 4 3 6 3 6 1 13-5 17-8l20 0c-5 9-7 18-8 24-14-10-27-10-40-8-14 3-24 7-27 9-15-1-31 3-47 11-10-8-22-13-36-13-32 0-57 26-57 57 0 32 25 57 57 57 32 0 57-25 57-57 0-2 0-3 0-5 12-4 21-7 25-9 12 14 45 18 53 18 23 22 49 9 57 5l10 6 0 10c-5 4-7 13-8 17-7 5-7 19-7 22 0 3 1 5 2 5 1 1 2 1 3 1 0 5-1 11-1 11 0 24 25 31 38 31 10-1 18-5 24-11 7-9 7-22 7-29 0 0 1 0 2-1 3-2 3-7 3-9 1-10-5-17-8-19 0-5-1-9-2-10l-1-7c4-10 30-27 45-35 22-7 12-49 11-54z m-310 14c27 0 50 22 50 49 0 28-23 50-50 50-27 0-50-22-50-50 0-27 23-49 50-49z m303-9c0 0 0 0 0 0 3 13 6 38-7 42-5 3-44 24-49 41 0 0 0 1 0 1l0 8c1 0 1 1 1 1 0 0 1 4 1 10 0 1 1 2 2 3 1 0 7 4 6 13 0 1 0 1 0 2 0 0 0 0 0 1-1-1-3-1-4 0-1 1-2 2-2 4 0 0 4 17-4 28-4 5-10 8-19 8 0 0-29 0-29-23 0-1 1-15 1-15 0-1 0-3-2-3-1-1-2-1-3-1 0-6 2-13 4-13 1-1 2-2 3-3 0-7 3-14 5-15 1-1 2-2 2-4l0-14c0-2 0-3-2-4l-14-8c-1-1-3-1-4 0-1 1-27 20-50-3 0-1-1-1-2-1-12-1-43-6-51-18-1-1-3-2-5-1 0 0-9 4-25 9-3-10-7-18-14-25 14-7 28-10 42-9 0 0 1 0 2-1 0 0 10-5 26-8 12-2 25-3 38 10 2 1 3 1 5 1 1-1 2-2 2-4 0 0 0-14 9-29 26 13 60 13 71 13 1 26 13 34 14 35 1 1 4 0 5-2 1-1 1-4-1-5 0 0-10-8-10-32 0-1-1-2-1-3-1-1-2-1-3-1-1 0-44 3-74-13-1-1-1-2-2-2l-29 0c-1 0-2 1-3 1-3 4-9 8-11 8-1 0-1 0-1-1-1-1-1-1-2-2-6-2-12-6-13-8 0 0 0 0 1-1 1-1 2-2 1-4 0-1-1-4 1-4 1-1 2-2 2-3 0-1 0-2 0-3-1-1 0-2 2-2 1-1 2-2 2-4 0 0 0 0 1-1 1-1 5-2 15 1 0 0 1 1 3 4 0 2 2 3 3 2 1 0 19-1 31-8 2-1 45-14 79 16 1 1 1 1 2 2 2 0 42 2 54 37z m-187 34c-2-1-2-4-1-5 1-2 4-3 5-1 27 17 45-3 45-3 1-1 2-2 3-2 1 0 2 1 3 1 1 2 1 4 0 6 0 0-22 25-55 4z m163-7c-2-1-3-3-2-5 0 0 9-28-11-40-2-2-2-4-1-6 0-1 2-2 3-2 1 0 1 1 2 1 20 12 18 38 14 49-1 2-3 4-5 3z m-262 31c0-9-8-16-17-16-9 0-16 7-16 16 0 9 7 17 16 17 9 0 17-8 17-17z m-8 0c0 5-4 9-9 9-5 0-9-4-9-9 0-5 4-9 9-9 5 0 9 4 9 9z m-18 23l0 6 2 2 6-8 5 0-8 11 7 7-5 0-7-7 0 7-3 0 0-18z m23 13l3 0 0-12c0-2 0-4-1-5-1-1-3-1-5-1-2 0-3 0-4 1-1 0-2 1-2 3l4 0c0-1 0-1 0-1 1-1 1-1 2-1 1 0 2 1 2 1 1 1 1 1 1 2l0 2 0 0c-1-1-2-2-4-2-1 0-3 1-4 2-1 1-1 3-1 5 0 2 0 4 1 5 1 1 3 2 4 2 2 0 3-1 4-2 0 0 0 0 0-1z m0-6c0 1 0 2-1 3 0 0-1 1-2 1-1 0-2-1-2-1-1-1-1-2-1-3 0-1 0-2 1-3 0-1 1-1 2-1 1 0 2 0 2 1 1 1 1 2 1 3z"/>
<glyph unicode="&#77;" d="M411 240c0 5-4 9-9 10l0 21c0 6-5 10-10 10-6 0-11-4-11-10l0-21-3 0 0 21c0 6-5 10-11 10-5 0-10-4-10-10l0-21-7 0 0 22c0 40-31 73-68 73l-1 0c12 8 19 21 19 36 0 24-20 44-44 44-24 0-44-20-44-44 0-15 7-28 19-36l-1 0c-37 0-68-33-68-73l0-22-7 0 0 21c0 6-5 10-10 10-6 0-11-4-11-10l0-21-3 0 0 21c0 6-5 10-11 10-5 0-10-4-10-10l0-21c-5-1-9-5-9-10 0-5 4-9 9-10l0-21c0-6 5-10 10-10 6 0 11 4 11 10l0 21 3 0 0-21c0-6 5-10 11-10 5 0 10 4 10 10l0 21 10 0c3-7 10-11 18-11 8 0 14 4 18 11l8 0 0-123c0-11 10-20 21-20 11 0 20 9 20 20l0 85 12 0 0-85c0-11 9-20 20-20 11 0 21 9 21 20l0 123 8 0c4-7 10-11 18-11 8 0 15 4 18 11l10 0 0-21c0-6 5-10 10-10 6 0 11 4 11 10l0 21 3 0 0-21c0-6 5-10 11-10 5 0 10 4 10 10l0 21c5 1 9 5 9 10z m-208 10l0 22c0 8 3 15 6 20l0-42z m100 42c3-5 6-12 6-20l0-22-6 0z"/>
<glyph unicode="&#78;" d="M168 470l-33 32 9 10 33-32z m-124-64l33-32 9 10-33 32z m333 96l-9 10-33-32 9-10z m82-85l-32-33 9-10 33 32z m-12 12l-13-12-15 15c3 7 2 15-4 21-6 6-14 7-20 4l-20 20 14 14-10 9-33-32 10-9 13 13 20-19-66-67-134 0-66 66 20 19 12-13 10 9-32 32-10-9 13-14-20-19c-6 3-14 2-20-4-4-4-6-10-5-16 0-2 1-4 2-5l-15-15-13 12-10-10 33-32 10 10-15 14 15 15 103-106 0-296c0-13 10-24 24-24 14 0 24 11 24 24l0 198 14 0 0-198c0-13 10-24 24-24 14 0 24 11 24 24l0 296 104 106 15-15-15-14 10-10 33 32z m-191-30c24 0 45 20 45 44 0 24-21 45-45 45-24 0-45-21-45-45 0-24 21-44 45-44z"/>
<glyph unicode="&#79;" d="M364 411c10 0 18 4 25 11 7 7 11 16 11 26 0 10-4 19-11 26-7 7-15 11-25 11-10 0-19-4-26-11-7-7-10-16-10-26 0-10 3-19 10-26 7-7 16-11 26-11z m26-8l-52 0-90 92c-4 4-8 6-13 6-6 0-10-1-13-5-4-4-6-8-6-14 0-5 1-9 5-13l94-96 0-322c0-6 2-10 6-15 4-4 9-6 14-6 6 0 10 2 15 6 4 5 6 9 6 15l0 175 17 0 0-175c0-6 1-10 5-15 4-4 9-6 14-6 6 0 11 2 15 6 4 5 6 9 6 15l0 322 94 96c3 4 5 8 5 13 0 6-2 10-6 14-4 4-8 5-13 5-5 0-10-2-13-6z m-190-142c-6 6-14 10-22 10l-76 0c-8 0-15-4-21-10l-76-78c-3-4-5-9-5-14 0-5 2-9 6-13 4-3 8-5 13-5 5 0 10 2 13 6l59 60 0-81-66 0c-6 0-11-2-16-6-4-4-6-9-6-16 0-7 2-12 6-16l75-77c3-5 7-8 13-10 6-1 12 0 16 4 6 2 10 7 11 13 2 6 1 12-2 18l-43 43 123 0-43-43c-3-6-3-12-2-18 2-6 5-11 11-15 5-2 11-3 16-2 6 2 10 5 14 10l74 77c4 4 7 9 7 15 0 7-2 12-7 17-4 4-9 6-15 6l-67 0 0 80 59-59c3-4 7-6 12-6 5 0 9 2 13 5 4 4 6 8 6 13 0 5-2 10-5 14z m-59 17c10 0 19 3 26 11 6 7 10 16 10 26 0 11-4 20-10 27-7 7-16 11-26 11-10 0-19-4-25-11-7-7-11-16-11-27 0-10 4-19 11-26 6-8 15-11 25-11z"/>
<glyph unicode="&#80;" d="M178 213l16 86c1 3 2 5 5 6 2 1 5 1 7 0l78-36c2 0 3-2 4-3l30-46 57 67c3 3 8 3 11 0 4-3 4-8 1-11l-64-76c-1-1-4-3-6-3 0 0-1 0-1 0-2 1-5 2-6 4l-35 54-66 31-15-76c-1-5-5-8-10-7-4 1-7 5-6 10z m208-22l-260 0c-5 0-9-4-9-8 0-5 4-9 9-9l260 0c5 0 9 4 9 9 0 4-4 8-9 8z m-219 101c12 0 23 10 23 23 0 12-11 23-23 23-13 0-23-11-23-23 0-13 10-23 23-23z"/>
<glyph unicode="&#81;" d="M162 326l28-1-43-25c-5-3-6-9-4-13l59-113c1-2 4-4 7-5 3 0 6 0 8 2l75 62 62-62c2-2 4-3 7-3 2 0 5 1 7 3 4 4 4 10 0 14l-69 68c-3 4-9 4-13 1l-72-59-49 92 66 39c3 2 5 7 4 11-1 5-5 8-9 8l-63 1c-3 11-14 20-26 20-15 0-28-13-28-28 0-15 13-27 28-27 11-1 20 6 25 15z m231-160l-242 0c-6 0-10-4-10-10 0-5 4-10 10-10l242 0c5 0 10 5 10 10 0 6-5 10-10 10z"/>
<glyph unicode="&#82;" d="M306 466c0 24-19 43-43 43-24 0-43-19-43-43 0-23 19-42 43-42 24 0 43 19 43 42z m118 14c0 8-6 15-15 15-9 0-16-7-16-15l0-58c0-3-1-4-4-4l-253 0c-2 0-4 1-4 4l0 58c0 9-7 15-15 15-9 0-15-6-15-15l0-77c0-9 5-16 14-16l96 0 0-363c0-13 10-23 23-23 12 0 23 10 23 23l0 173 10 0 0-173c0-13 10-23 23-23 13 0 23 10 23 23l0 363 94 0c6 0 9 1 12 4 3 3 4 8 4 12l0 77z"/>
<glyph unicode="&#83;" d="M408 231c0 3-2 6-5 6l0 0-19-1 0 20c0 2-3 5-6 5l0 0-37 0c-1 0-3-1-4-2-1-1-1-2-1-3l0-34-47 0c1 2 2 3 3 5 7 16 10 33 9 50-2 23-12 45-29 61-4 4-8 7-12 10 0 0 0 1-1 1-16 12-36 18-57 18-26 0-51-10-69-29-34-33-38-86-12-124 0 0 0 0 0 0 0-1 1-2 2-3 3-4 6-8 10-12 17-17 40-27 64-29 1 0 2-1 4-1l19 0 0-19c0-3 2-5 5-5l0 0 38 0c1 0 2 0 3 1 1 1 2 3 2 4l0 34 68 0 0-34c0-3 2-5 5-5l0 0 38 0c1 0 2 1 3 2 1 1 2 2 2 3l0 20 19 0c1 0 3 0 4 1 1 1 1 2 1 4z m-125 1c-2-4-4-7-6-10l-9 0-1 30c0 0 1 0 1 0 9 12 15 22 21 33 1-3 1-6 1-9 2-15-1-31-7-44z m-169 31c21 7 41 20 58 36 18 19 29 37 36 58 15-1 30-6 43-14-9-26-26-52-48-73-22-23-49-40-75-49-8 13-13 27-14 42z m26 68c15 16 36 25 57 26-6-18-17-34-33-50-14-15-32-26-50-33 2 21 10 41 26 57z m-6-118c27 9 54 27 77 49 22 23 38 48 48 74 2-1 4-3 6-5 9-9 15-19 20-31 0 0-1 0-1 0-5-14-12-26-23-40l-36 0c-2 0-3 0-4-1-1-1-1-2-1-4l0-19-19 0c-3 0-6-2-6-5l1-29c-10-6-20-10-29-14-10 4-19 10-27 18-2 2-4 5-6 7z m62-32c-5 0-10 1-15 2 5 2 10 5 15 7z m10-2l0 47 14 0 0-47z m24-24l0 95 27 0 0-95z m38 39l0 17 68 0 0-17z m78-39l0 95 27 1 1-96z m38 25l0 46 14 0 0-46z"/>
<glyph unicode="&#84;" d="M356 393l-55 0-36-51 28-39z m-91-112l0 9 19 0-73 103-55 0 72-103 19 0 0-9-38 0-48-82 48-82 94 0 48 82-48 82z m-50-10l82 0 30-51-142 0z m95-83l1-1 1 0 2 0 0-5-16 0 0 5 1 0 2 0 1 1 0 2 0 20-8-28-5 0-8 27 0-20 0-1 1-1 1 0 2 0 0-5-14 0 0 5 2 0 1 0 1 1 0 2 0 19 0 1 0 1-2 0-2 0 0 5 15 0 6-21 6 21 16 0 0-5-2 0-2 0c0-1 0-1 0-2l0-19z m-54 0l1-1c0 0 1 0 2 0l1 0 0-5-16 0 0 5 1 0c1 0 2 0 2 0l1 1c0 0 0 1 0 2l0 5-9 14c-1 1-1 2-2 2 0 0-1 0-2 0l0 5 17 0 0-5-2 0-1 0-1-1 1-1 4-8 5 8 1 1 0 0 0 1-1 0-2 0 0 5 13 0 0-5c-1 0-2 0-2 0-1 0-1-1-2-2l-9-13 0-6c0-1 0-2 0-2z m-47 5c1-2 2-3 3-4 1-1 3-2 5-2 1 0 2 0 3 1 1 0 2 1 2 1 0 1 1 2 1 3l0 1-1 2 0 0-2 1-2 0 0 4 16 0 0-4-1 0-1-1-1 0 0-2 0-11-5 0-2 3c-1-1-3-2-4-3-2 0-4 0-5 0-3 0-6 0-9 2-2 1-4 4-6 6-1 3-2 6-2 9 0 4 1 6 2 9 2 3 4 5 6 6 3 2 6 2 9 2 1 0 3 0 4 0 2 0 3-1 4-2l1 2 3 0 3-11-4-2c-2 3-3 4-4 5 0 1-1 2-3 2-1 1-2 1-3 1-1 0-3 0-4-1-2-1-3-2-3-4-1-2-1-4-1-6-1-3 0-5 1-7z m88-66l-82 0-30 52 142 0z m-64 118l6 3 5-3-1 6 4 5-6 1-2 5-3-5-6-1 4-5z m35-1l5 3 6-3-1 6 4 5-6 0-3 6-2-6-6 0 4-5z m-51-9l-1-6 5 3 5-3-1 6 5 4-6 1-3 5-3-5-6-1z m35-1l-1-6 5 3 5-3-1 6 5 5-6 0-3 6-3-6-6 0z m35 1l-1-6 5 3 5-3-1 6 5 4-6 1-3 5-3-5-6-1z m-8-82l-6-3-5 3 1-6-4-5 6 0 2-6 3 6 6 0-4 5z m-35 1l-5-3-6 3 1-6-4-4 6-1 3-6 2 6 6 1-4 4z m51 9l1 6-5-2-5 2 1-6-5-4 6-1 3-5 3 5 6 1z m-35 1l1 6-5-3-5 3 1-6-5-4 6-1 3-6 3 6 6 1z m-35-1l1 6-5-2-5 2 1-6-5-4 6-1 3-5 3 5 6 1z"/>
<glyph unicode="&#85;" d="M39 272l23 0 0-36c0-11 9-21 20-21 4 0 7 1 10 3l0-10c0-12 10-21 21-21 12 0 21 9 21 21l0 64 24 0 21 22 0 14-45 0 0 64c0 11-9 21-21 21-11 0-21-10-21-21l0-10c-3 1-6 2-10 2-11 0-20-9-20-20l0-36-23 0c-10 0-18-8-18-18 0-10 8-18 18-18z m423 36l-27 0 0 36c0 11-10 20-21 20-4 0-7-1-10-2l0 10c0 11-10 21-21 21-12 0-21-10-21-21l0-64-7 0 0-36 7 0 0-64c0-12 10-21 21-21 11 0 21 9 21 21l0 10c3-2 6-3 10-3 11 0 21 10 21 21l0 36 27 0c10 0 18 8 18 18 0 10-8 18-18 18z m-251 68c-9 0-16-7-16-16l0-65-26-27c-11-13-13-33-2-47l19-26c7-10 13-25 13-34 0-15 14-27 32-27l63 0c17 0 32 14 32 32l0 7c0 12 7 30 11 42 3 5 4 10 4 16 1 6 0 13-2 21 0 0 0 1 0 1l0 79c0 8-7 16-16 16-9 0-16-8-16-16l0-45c-6 3-12 4-19 4-13 0-26-3-39-9-7-3-11-9-12-17-2-9 1-19 8-26 1-1 2-3 3-4 0 0-1 0-1 1-10 6-23 15-30 28l21 27c3 3 9 6 13 6l37 0c9 0 16 7 16 16 0 5-3 10-7 13l0 24c0 9-7 16-16 16-9 0-16-7-16-16l0-21-3 0 0 21c0 9-7 16-16 16-9 0-16-7-16-16l0-22c-1 0-2-1-3-1 0 0 0 0 0 0l0 33c0 9-7 16-16 16z m119-312l0 32c0 13-11 24-24 24l-94 0c-14 0-24-11-24-24l0-32c0-13 10-24 24-24l94 0c13 0 24 11 24 24z"/>
<glyph unicode="&#86;" d="M356 356c-27 26-62 41-100 41-6 0-11-1-16-1-1 0-1 0-2 0-31-4-59-18-82-40-22-23-36-52-39-82-1-1-1-1-1-2-4-41 9-84 40-116 27-26 62-41 100-41 38 0 73 15 100 41 54 55 54 145 0 200z m-137-225c-15 4-29 11-42 21 40 13 80 38 114 72 33 32 57 70 71 108 8-12 15-25 19-39 0 0-1-1-1-1-9-39-29-75-57-103-29-28-64-48-102-58-1 0-1 0-2 0z m76 250c-9-37-30-74-60-103-30-31-67-52-104-60-5 16-7 33-5 50 27 8 53 24 73 44 21 21 37 47 45 74 4 0 8 1 12 1 13 0 26-2 39-6z m-131-33c19 19 42 32 68 36-7-23-21-46-40-64-18-19-41-33-64-40 4 25 16 49 36 68z m-29-140c38 9 76 31 107 62 31 31 53 69 62 107 17-6 32-16 44-29 2-2 4-4 6-6-12-39-37-78-70-111-34-34-75-60-116-71-1 1-3 2-4 4-13 13-23 28-29 44z m213-44c-24-25-57-39-92-39-5 0-11 1-16 1 34 12 65 30 90 56 25 25 44 56 55 90 5-38-7-79-37-108z"/>
<glyph unicode="&#87;" d="M274 293l-122 0c-3 0-5 3-5 5 0 3 2 6 5 6l122 0c3 0 5-3 5-6 0-2-2-5-5-5z m-54-41c0 3-2 6-5 6l-63 0c-3 0-5-3-5-6 0-2 2-5 5-5l63 0c3 0 5 3 5 5z m-68-41c-3 0-5-2-5-5 0-2 2-5 5-5l33 0c2 0 5 3 5 5 0 3-3 5-5 5z m249-42c0-3-3-5-6-5l-41 0c-2 0-4 1-5 2l-5 8-13-19c-1-2-2-3-4-3 0 0 0 0-1 0-2 1-3 2-4 4l-12 34-9-23c-1-2-3-3-5-3l-24 0c-3 0-5 2-5 5 0 3 2 5 5 5l21 0 12 32c1 2 2 4 5 4 2 0 4-2 4-4l14-37 12 18c1 1 3 2 4 2 2 0 4-1 5-2l7-13 24 0c2 4 4 7 5 11 1 4 2 8 2 13 0 14-8 28-21 35-6 3-13 5-20 5-12 0-23-5-31-14-1-2-3-2-4-2-2 0-3 0-4 2-12 14-34 18-51 9-13-7-21-21-21-35 0-5 1-9 2-13 7-29 61-67 74-75 8 5 35 23 54 43 2 2 5 3 7 1 2-2 2-6 0-8-24-25-57-46-58-47-1 0-2 0-3 0-1 0-2 0-3 0-3 2-73 46-81 83-1 5-2 10-2 16 0 18 10 35 26 44 17 9 38 8 54-3l0 117-38 0 0-11c0-3-3-5-5-5l-97 0c-3 0-5 2-5 5l0 11-38 0 0-229 127 0c3 0 6-2 6-5 0-3-3-5-6-5l-132 0c-3 0-6 2-6 5l0 239c0 3 3 6 6 6l43 0 0 14c0 2 2 5 5 5l21 0c0 0 0 0 0 0 0 15 12 27 27 27 15 0 28-12 28-27 0 0 0 0 0 0l21 0c3 0 5-3 5-5l0-14 43 0c3 0 5-3 5-6l0-123c16 12 38 14 56 4 16-9 26-26 26-44 0-6-1-11-3-16 0-3-1-5-2-8l3 0c3 0 6-2 6-5z m-144 206l-22 0c-2 0-3 1-4 2-1 2-2 3-1 5 0 1 0 3 0 4 0 9-7 17-17 17-9 0-17-8-17-17 0-1 0-3 1-4 0-2 0-3-1-5-1-1-3-2-4-2l-22 0 0-25 87 0z"/>
<glyph unicode="&#88;" d="M265 244c10 5 13 18 7 31-6 12-18 18-28 13-10-4-13-18-7-30 5-12 18-19 28-14z m29 73c10-59-32-103-32-103 0 0-35 59-93 76 113-83 49-186 49-186l32 0c0 0 77 132 44 213z m-64-6c0 0-1 1-2 3-3 5-4 10-4 10 0 0 3-4 6-9 1-1 2-2 2-3 1 2 1 7-1 11-4 6-11 8-11 8 0 0-2-8 1-13 2-5 7-7 9-7z m76-44c1-2 6-5 10-5 7 0 12 6 12 6 0 0-5 6-12 6-4 0-9-3-10-5 1 0 2 0 3 0 6 0 11-1 11-1 0 0-5-1-11-1-1 0-2 0-3 0z m-24 48c3 5 6 9 6 9 0 0-1-5-4-10-1-2-2-3-2-3 2 0 7 2 9 7 3 5 1 13 1 13 0 0-7-2-11-8-2-4-2-9-1-11 0 1 1 2 2 3z m-29 31c0 13 3 24 3 24 0 0 3-11 3-24 0-3 0-6-1-8 4 4 11 13 11 24 0 15-13 27-13 27 0 0-13-12-13-27 0-11 7-20 11-24-1 2-1 5-1 8z m-85-42c10-5 21-4 26-3-2 1-4 2-7 4-11 6-19 14-19 14 0 0 10-3 22-10 2-1 5-3 7-4-2 5-7 16-16 21-13 7-29 2-29 2 0 0 4-17 16-24z m176-72c-10 5-21 4-26 3 2-1 4-2 7-3 11-7 19-15 19-15 0 0-10 3-22 10-2 1-5 3-7 4 2-5 7-15 16-21 13-7 29-2 29-2 0 0-4 17-16 24z m-147-1c-2-1-5-3-7-4-12-7-22-10-22-10 0 0 8 8 19 15 3 1 5 2 7 3-5 1-16 3-26-3-12-7-16-24-16-24 0 0 16-5 29 2 9 6 14 16 16 21z m118 74c2 2 5 3 7 4 12 7 22 10 22 10 0 0-8-8-19-14-3-2-5-3-7-4 5-1 16-2 26 3 12 7 16 24 16 24 0 0-16 5-29-2-9-5-14-16-16-21z m-109 43c-1 2-3 5-5 9-9 15-13 29-13 29 0 0 10-10 19-26 2-3 3-6 5-9 1 7 3 22-4 35-10 17-33 22-33 22 0 0-7-22 3-39 7-13 21-19 28-21z m100-159c1-3 3-6 5-9 9-16 13-30 13-30 0 0-10 10-19 26-2 3-3 6-5 9-1-7-3-22 4-34 10-17 33-23 33-23 0 0 7 23-3 40-7 12-21 18-28 21z m-154 76c-18 0-33 3-33 3 0 0 15 4 33 4 3 0 7 0 10-1-5 5-18 14-32 14-20 0-36-17-36-17 0 0 16-17 36-17 14 0 27 9 32 14-3 0-7 0-10 0z m230 20c-14 0-27-9-32-14 3 1 7 1 10 1 18 0 33-4 33-4 0 0-15-3-33-3-3 0-7 0-10 0 5-5 18-14 32-14 20 0 36 17 36 17 0 0-16 17-36 17z m-175-109c-9-16-19-26-19-26 0 0 4 14 13 30 2 3 4 6 5 9-7-3-21-9-28-21-10-17-3-40-3-40 0 0 23 5 33 23 7 12 5 27 4 34-2-3-3-6-5-9z m98 184c9 16 19 26 19 26 0 0-4-14-13-29-2-4-4-7-5-9 7 2 21 8 28 21 10 17 3 39 3 39 0 0-23-5-33-22-7-13-5-28-4-35 2 3 3 6 5 9z"/>
</font>
</defs>
</svg>
